<svg xmlns="http://www.w3.org/2000/svg" width="973.39" height="449.12" viewBox="0 0 973.39 449.12"><path d="M829.88,673.73c-4-1.05-7.68-2.73-10.53-5.93a17.84,17.84,0,0,1,0-23.74c.69-.77,1.42-1.49,2.15-2.21q60.16-60.24,120.34-120.48c.55-.54,1.17-1,1.92-1.63-.7-.74-1.21-1.29-1.73-1.81L820.57,396.34c-5.74-5.75-7.34-13.44-4.26-20.3a17.79,17.79,0,0,1,27.33-6.8,26.57,26.57,0,0,1,2.45,2.17q67.39,67.45,134.77,134.93c5.56,5.57,7.35,12.17,4.51,19.56a21.45,21.45,0,0,1-4.81,7.07q-34,34.32-68.29,68.47-31.57,31.62-63.14,63.27c-3.92,3.94-7.82,7.74-13.47,9Z" transform="translate(-13.31 -276.65)"/><path d="M164.34,673.73c-5.65-1.28-9.55-5.09-13.47-9Q85.17,598.82,19.38,533c-5.6-5.61-7.64-12.16-4.8-19.67a21.68,21.68,0,0,1,4.88-7.24q39.3-39.57,78.77-79l55.68-55.74c5.16-5.16,11.23-7.27,18.43-5.29,12.51,3.45,17.1,19.44,8.28,29-2.7,2.92-5.59,5.67-8.41,8.49Q115.1,460.75,58,517.92a14.93,14.93,0,0,1-1.81,1.33c.84.89,1.35,1.45,1.88,2q60.57,60.64,121.17,121.29c4.64,4.64,6.88,10.06,5.62,16.57-1.48,7.61-6.21,12.3-13.67,14.26-.36.1-.71.25-1.06.38Z" transform="translate(-13.31 -276.65)"/><path d="M429.58,623.84c-.63,4.82-1.35,9-1.69,13.2A29.71,29.71,0,0,0,431,652.71c.76,1.57,1.5,3.17,2.41,4.66,8.08,13.34,11.05,27.91,10.59,43.34-.08,2.62-.08,5.25-.06,7.88a10.63,10.63,0,0,0,6.23,10.08,89.08,89.08,0,0,0,10.08,4.11c3.29,1.14,6.69,2,10.25,3l4.11-13.68c1.77.41,3.45.81,5.13,1.18a61.12,61.12,0,0,0,18.11.76,37.05,37.05,0,0,1,13.22.94,2.06,2.06,0,0,0,1.84-.73c1.31-2.34,2.44-4.78,3.72-7.36l-1.69-.34c.53-.7.94-1.26,1.56-2.09l.59,1.75,6.77-5.4c-4.45-9-11.49-13.5-21.24-14-5.51-.31-11.09-.43-16.48-1.44-13.49-2.51-21.72-11.38-26.28-23.76-5.07-13.75-4.54-27.38,2.65-40.4A96.1,96.1,0,0,1,470.13,609c8.58-11.18,13.76-23.81,17.22-37.33,2.38-9.33,5.08-18.58,7.73-27.83a3.16,3.16,0,0,1,1.8-2c16.14-3.63,30.41-11.07,43.6-20.86,3.3-2.44,6.79-4.63,10.29-6.78a4.79,4.79,0,0,1,3.17-.69,48.33,48.33,0,0,1,8.35,2.27c9.58,3.84,14.72,10.91,15.14,21.33.13,3.09.49,6.18.87,9.25a23.54,23.54,0,0,0,1.1,3.64,36.08,36.08,0,0,0,5-3,5.5,5.5,0,0,0,1.45-3.14c.37-2.16.45-4.37.65-6.56l.58-.14a26.34,26.34,0,0,1,1.69,4.29,5,5,0,0,0,4,4,1.42,1.42,0,0,0,2-.94,18.51,18.51,0,0,0,1-13.59c-2.36-7.82-6.57-14.09-14.57-17.24a24.29,24.29,0,0,1-10.09-7.51c3.4-1.84,6.52-3.82,9.87-5.26a9.28,9.28,0,0,1,8.73,1c3,1.84,5.83,3.87,8.69,5.89a23.76,23.76,0,0,0,10.89,4.47c2.58.32,5.07,1.33,7.61,2a2,2,0,0,1,1.7,2.28c.1,6.2.31,12.39.48,18.59,0,.78,0,1.57,0,2.28,6.85-.48,6.85-6,8.12-11a10.54,10.54,0,0,0,1.23,2c1.55,1.44,3,3.12,4.81,4.1,2.49,1.34,3.25.87,3.51-1.91a33.65,33.65,0,0,0,0-7.64,36,36,0,0,0-5-13.55,18.33,18.33,0,0,0-12.37-9c-3.1-.68-6.22-1.23-9.28-2-6.9-1.78-9.62-5.3-9.7-12.44-.07-5.88,1.76-11.4,3.07-17,2-8.64,7-14.81,14.42-19.34,6-3.65,11.94-7.32,17.81-11.14,7.45-4.85,14.31-10.43,19.22-17.94,2.78-4.25,4.93-8.91,7.48-13.61,3.74.54,7.92,1.15,12.1,1.73,9.53,1.33,19.13,2.32,28.58,4.09,5.57,1.05,10.91,3.36,16.37,5.06,6.46,2,13,3.77,19.84,2.64,10.44-1.71,16.66-13.16,12-22.66a27.6,27.6,0,0,0-7-9c-5.55-4.54-11.6-8.5-17.58-12.5a114,114,0,0,0-11.12-6.58c-5.77-3-8.15-7.88-8.77-14a61.84,61.84,0,0,1,1-17.49c.24-1.27.84-1.8,2-1.64,4.72.63,9.48,1.12,14.15,2,14.23,2.76,30.24-4.86,35.83-17.48,9-20.33-5.68-44.75-28.08-44.41-8,.12-15.6,2-23.21,4-6.69,1.81-13.29,4-20.3,4.36-6,.32-11.65-.62-16.79-4-4.41-2.88-8.71-2.21-12.75.84a57.48,57.48,0,0,0-4.56,4,33.63,33.63,0,0,1-13,7.57c-5.07,1.61-10.09,3.38-15.07,5.24a34.72,34.72,0,0,0-16.75,13.43,148.55,148.55,0,0,0-13.74,26.27,110.12,110.12,0,0,1-6.52,13.64c-6.12,10.25-15.09,16.24-27.32,16.19-8,0-16-.19-24-1a91.36,91.36,0,0,0-50.94,9.42c-7.36,3.65-14.84,7-22.1,10.9a47,47,0,0,1-22,5.27c-4.37.05-8.76.19-13.1.65a47.07,47.07,0,0,0-19.45,6.39c-9,5.39-17.8,11.15-26.61,16.85a15.63,15.63,0,0,0-6.62,8.13c-.7,2-2.37,3.74-3.9,5.32-6.43,6.63-14,11.8-22,16.36-15.72,9-31.59,17.75-47.32,26.72s-31.13,18.57-44.92,30.46c-8.67,7.47-16.51,15.69-22.15,25.77-11.74,21-9,44.09,7.34,61.82,10.24,11.12,22.71,19.15,36.07,25.92A176.59,176.59,0,0,0,313,630c.76.21,1.54.39,2.52.65,0-4.75-1.56-8.59-5.2-11.24a63.4,63.4,0,0,0-8.55-4.92c-7.32-3.72-14.9-7-22-11.11a92.54,92.54,0,0,1-14.42-11,23.24,23.24,0,0,1-7.85-14.66c-1-7.9,3.22-16.59,10.2-20.44,8-4.4,16.69-6.81,25.47-8.93a318.65,318.65,0,0,1,62.9-8.93c7-.26,13.74.41,20.16,3.27,11.41,5.08,23.43,7.38,35.82,8.27,5.59.4,11.15,1.42,16.13,4.16a89,89,0,0,1,7.44,5.16,1.6,1.6,0,0,1,.4,2.57,63.06,63.06,0,0,1-5,6.86c-6.85,7.33-13.77,14.6-20.87,21.68a41.63,41.63,0,0,1-15.05,9.64,20.29,20.29,0,0,0-12.49,12.4c-3.65,9.7-7.17,19.45-10.49,29.27-2.31,6.81-4.35,13.73-6.24,20.67a29.25,29.25,0,0,0,2.29,21.42c4,7.81,8.21,15.46,12.34,23.18,1.11,2.08,2.35,4.1,3.32,6.24a3,3,0,0,0,3.15,1.88,57.33,57.33,0,0,0,20.17-3.66c5.31-1.92,10.53-4.11,15.75-6.29a2.16,2.16,0,0,0,1.15-1.66c-.52-4.06-2-7.77-6.07-9.36-9-3.55-13-10.67-14.58-19.58-2-11-3.12-22-1.48-33.15,1.34-9,6.43-14.84,15.42-16.8C421.39,624.75,425.49,624.42,429.58,623.84Z" transform="translate(-13.31 -276.65)"/><path d="M569.61,543.74h0a4.93,4.93,0,0,1,4.21-5.57l76.67-10.62a5,5,0,0,0,3.85-2.91l29.26-66.75a4.94,4.94,0,0,1,6.51-2.54h0a5,5,0,0,1,2.54,6.51l-31.47,71.81a4.94,4.94,0,0,1-3.85,2.91L575.18,548A4.93,4.93,0,0,1,569.61,543.74Z" transform="translate(-13.31 -276.65)"/></svg>